<svg width="161" height="160" viewBox="0 0 161 160" fill="none" xmlns="http://www.w3.org/2000/svg">
<g id="iwwa:co2">
<g id="Vector">
<path d="M61.3044 122.356H61.2977C61.0359 122.353 60.7765 122.308 60.5289 122.224C55.3373 122.216 50.146 122.141 44.9562 122C41.184 121.908 37.6896 121.824 33.6444 121.824H33.6439C27.15 121.818 20.9239 119.235 16.3316 114.644C11.7393 110.052 9.156 103.827 9.14844 97.3327L9.14844 97.3321C9.14844 89.2627 13.0026 81.8883 19.5377 77.3039C19.0396 74.7571 18.7872 72.1682 18.7844 69.5727V69.5721C18.7844 47.556 36.6963 29.6401 58.7204 29.6401H58.7209C65.9328 29.6472 73.0088 31.603 79.2006 35.3007C85.201 38.8841 90.155 43.9743 93.5739 50.061C95.7472 47.9531 98.2967 46.2685 101.092 45.0958C104.094 43.8365 107.318 43.1933 110.573 43.2041C110.574 43.2041 110.574 43.2041 110.574 43.2041L110.572 43.7041C114.218 43.7072 117.814 44.5399 121.09 46.1392C124.366 47.7384 127.235 50.0622 129.479 52.9346C131.724 55.8069 133.285 59.1525 134.045 62.7177C134.804 66.2829 134.743 69.9743 133.864 73.5121L61.3044 122.356ZM61.3044 122.356C67.0759 122.356 79.9916 122.064 93.656 121.744M61.3044 122.356L134.461 73.1657C139.409 74.6658 143.76 77.6947 146.886 81.8237C150.109 86.0804 151.853 91.2732 151.852 96.6121C151.852 110.12 140.865 121.112 127.356 121.112C121.196 121.112 107.2 121.432 93.656 121.744M93.656 121.744L93.6444 121.244L93.6561 121.744C93.6561 121.744 93.656 121.744 93.656 121.744ZM23.1564 79.9801C23.4949 79.7761 23.7596 79.4695 23.9121 79.1048C24.0645 78.7402 24.0969 78.3364 24.0044 77.9521C23.3444 75.2201 23.0084 72.4001 23.0084 69.5721C23.0084 49.8801 39.0284 33.8641 58.7204 33.8641L23.1564 79.9801ZM23.1564 79.9801C20.159 81.7739 17.6802 84.3172 15.964 87.3596M23.1564 79.9801L15.964 87.3596M15.964 87.3596C14.2478 90.4021 13.3533 93.839 13.3684 97.3321L15.964 87.3596ZM58.7203 34.3641C65.5148 34.3722 72.1627 36.341 77.8659 40.0342C83.5686 43.7271 88.0845 48.9872 90.8715 55.1832C91.0361 55.5577 91.2955 55.8828 91.6241 56.1264C91.9534 56.3706 92.3408 56.5244 92.7479 56.5727C93.1551 56.6209 93.5677 56.5619 93.945 56.4015C94.3221 56.2412 94.6508 55.9851 94.8985 55.6587C96.7383 53.2499 99.1102 51.2991 101.829 49.9588C104.548 48.6182 107.54 47.9246 110.571 47.9321H110.572C113.718 47.9348 116.819 48.6876 119.616 50.128C122.414 51.5685 124.827 53.6551 126.657 56.2148C128.487 58.7745 129.68 61.7336 130.137 64.8466C130.594 67.9596 130.303 71.1368 129.287 74.1147C129.177 74.4338 129.138 74.7727 129.17 75.1086C129.203 75.445 129.308 75.7703 129.477 76.0627C129.647 76.3551 129.877 76.6075 130.153 76.8029C130.428 76.9983 130.743 77.1321 131.074 77.1952C135.591 78.0593 139.664 80.471 142.594 84.0151C145.523 87.5591 147.125 92.0136 147.124 96.6116C147.119 101.854 145.035 106.881 141.328 110.589C137.621 114.296 132.595 116.382 127.352 116.388C121.132 116.388 107.101 116.708 93.541 117.02C80.6818 117.315 67.4019 117.617 61.5511 117.628C61.3038 117.544 61.0447 117.5 60.7832 117.496H60.7764C54.4074 117.496 49.6782 117.385 45.331 117.282L45.0685 117.276C41.265 117.184 37.7315 117.1 33.6409 117.1C28.3992 117.095 23.3736 115.011 19.6667 111.305C15.9599 107.598 13.8746 102.573 13.8684 97.3316L13.8684 97.33C13.8536 93.9237 14.726 90.5722 16.3995 87.6053C18.0731 84.6384 20.4903 82.1584 23.4132 80.4092L23.4146 80.4083C23.8441 80.1494 24.1799 79.7604 24.3734 79.2977C24.5668 78.835 24.6079 78.3228 24.4906 77.8352L24.4905 77.8347C23.8398 75.1413 23.5084 72.3607 23.5084 69.5721C23.5084 50.1564 39.3044 34.3642 58.7203 34.3641Z" fill="#26A522"/>
<path d="M61.3044 122.356H61.2977C61.0359 122.353 60.7765 122.308 60.5289 122.224C55.3373 122.216 50.146 122.141 44.9562 122C41.184 121.908 37.6896 121.824 33.6444 121.824H33.6439C27.15 121.818 20.9239 119.235 16.3316 114.644C11.7393 110.052 9.156 103.827 9.14844 97.3327L9.14844 97.3321C9.14844 89.2627 13.0026 81.8883 19.5377 77.3039C19.0396 74.7571 18.7872 72.1682 18.7844 69.5727V69.5721C18.7844 47.556 36.6963 29.6401 58.7204 29.6401H58.7209C65.9328 29.6472 73.0088 31.603 79.2006 35.3007C85.201 38.8841 90.155 43.9743 93.5739 50.061C95.7472 47.9531 98.2967 46.2685 101.092 45.0958C104.094 43.8365 107.318 43.1933 110.573 43.2041C110.574 43.2041 110.574 43.2041 110.574 43.2041L110.572 43.7041C114.218 43.7072 117.814 44.5399 121.09 46.1392C124.366 47.7384 127.235 50.0622 129.479 52.9346C131.724 55.8069 133.285 59.1525 134.045 62.7177C134.804 66.2829 134.743 69.9743 133.864 73.5121L61.3044 122.356ZM61.3044 122.356C67.0759 122.356 79.9916 122.064 93.656 121.744M61.3044 122.356L134.461 73.1657C139.409 74.6658 143.76 77.6947 146.886 81.8237C150.109 86.0804 151.853 91.2732 151.852 96.6121C151.852 110.12 140.865 121.112 127.356 121.112C121.196 121.112 107.2 121.432 93.656 121.744M93.656 121.744L93.6444 121.244L93.6561 121.744C93.6561 121.744 93.656 121.744 93.656 121.744ZM23.1564 79.9801C23.4949 79.7761 23.7596 79.4695 23.9121 79.1048C24.0645 78.7402 24.0969 78.3364 24.0044 77.9521C23.3444 75.2201 23.0084 72.4001 23.0084 69.5721C23.0084 49.8801 39.0284 33.8641 58.7204 33.8641L23.1564 79.9801ZM23.1564 79.9801C20.159 81.7739 17.6802 84.3172 15.964 87.3596M23.1564 79.9801L15.964 87.3596M15.964 87.3596C14.2478 90.4021 13.3533 93.839 13.3684 97.3321L15.964 87.3596ZM58.7203 34.3641C65.5148 34.3722 72.1627 36.341 77.8659 40.0342C83.5686 43.7271 88.0845 48.9872 90.8715 55.1832C91.0361 55.5577 91.2955 55.8828 91.6241 56.1264C91.9534 56.3706 92.3408 56.5244 92.7479 56.5727C93.1551 56.6209 93.5677 56.5619 93.945 56.4015C94.3221 56.2412 94.6508 55.9851 94.8985 55.6587C96.7383 53.2499 99.1102 51.2991 101.829 49.9588C104.548 48.6182 107.54 47.9246 110.571 47.9321H110.572C113.718 47.9348 116.819 48.6876 119.616 50.128C122.414 51.5685 124.827 53.6551 126.657 56.2148C128.487 58.7745 129.68 61.7336 130.137 64.8466C130.594 67.9596 130.303 71.1368 129.287 74.1147C129.177 74.4338 129.138 74.7727 129.17 75.1086C129.203 75.445 129.308 75.7703 129.477 76.0627C129.647 76.3551 129.877 76.6075 130.153 76.8029C130.428 76.9983 130.743 77.1321 131.074 77.1952C135.591 78.0593 139.664 80.471 142.594 84.0151C145.523 87.5591 147.125 92.0136 147.124 96.6116C147.119 101.854 145.035 106.881 141.328 110.589C137.621 114.296 132.595 116.382 127.352 116.388C121.132 116.388 107.101 116.708 93.541 117.02C80.6818 117.315 67.4019 117.617 61.5511 117.628C61.3038 117.544 61.0447 117.5 60.7832 117.496H60.7764C54.4074 117.496 49.6782 117.385 45.331 117.282L45.0685 117.276C41.265 117.184 37.7315 117.1 33.6409 117.1C28.3992 117.095 23.3736 115.011 19.6667 111.305C15.9599 107.598 13.8746 102.573 13.8684 97.3316L13.8684 97.33C13.8536 93.9237 14.726 90.5722 16.3995 87.6053C18.0731 84.6384 20.4903 82.1584 23.4132 80.4092L23.4146 80.4083C23.8441 80.1494 24.1799 79.7604 24.3734 79.2977C24.5668 78.835 24.6079 78.3228 24.4906 77.8352L24.4905 77.8347C23.8398 75.1413 23.5084 72.3607 23.5084 69.5721C23.5084 50.1564 39.3044 34.3642 58.7203 34.3641Z" fill="black" fill-opacity="0.4"/>
<path d="M61.3044 122.356H61.2977C61.0359 122.353 60.7765 122.308 60.5289 122.224C55.3373 122.216 50.146 122.141 44.9562 122C41.184 121.908 37.6896 121.824 33.6444 121.824H33.6439C27.15 121.818 20.9239 119.235 16.3316 114.644C11.7393 110.052 9.156 103.827 9.14844 97.3327L9.14844 97.3321C9.14844 89.2627 13.0026 81.8883 19.5377 77.3039C19.0396 74.7571 18.7872 72.1682 18.7844 69.5727V69.5721C18.7844 47.556 36.6963 29.6401 58.7204 29.6401H58.7209C65.9328 29.6472 73.0088 31.603 79.2006 35.3007C85.201 38.8841 90.155 43.9743 93.5739 50.061C95.7472 47.9531 98.2967 46.2685 101.092 45.0958C104.094 43.8365 107.318 43.1933 110.573 43.2041C110.574 43.2041 110.574 43.2041 110.574 43.2041L110.572 43.7041C114.218 43.7072 117.814 44.5399 121.09 46.1392C124.366 47.7384 127.235 50.0622 129.479 52.9346C131.724 55.8069 133.285 59.1525 134.045 62.7177C134.804 66.2829 134.743 69.9743 133.864 73.5121L61.3044 122.356ZM61.3044 122.356C67.0759 122.356 79.9916 122.064 93.656 121.744M61.3044 122.356L134.461 73.1657C139.409 74.6658 143.76 77.6947 146.886 81.8237C150.109 86.0804 151.853 91.2732 151.852 96.6121C151.852 110.12 140.865 121.112 127.356 121.112C121.196 121.112 107.2 121.432 93.656 121.744M93.656 121.744L93.6444 121.244L93.6561 121.744C93.6561 121.744 93.656 121.744 93.656 121.744ZM23.1564 79.9801C23.4949 79.7761 23.7596 79.4695 23.9121 79.1048C24.0645 78.7402 24.0969 78.3364 24.0044 77.9521C23.3444 75.2201 23.0084 72.4001 23.0084 69.5721C23.0084 49.8801 39.0284 33.8641 58.7204 33.8641L23.1564 79.9801ZM23.1564 79.9801C20.159 81.7739 17.6802 84.3172 15.964 87.3596M23.1564 79.9801L15.964 87.3596M15.964 87.3596C14.2478 90.4021 13.3533 93.839 13.3684 97.3321L15.964 87.3596ZM58.7203 34.3641C65.5148 34.3722 72.1627 36.341 77.8659 40.0342C83.5686 43.7271 88.0845 48.9872 90.8715 55.1832C91.0361 55.5577 91.2955 55.8828 91.6241 56.1264C91.9534 56.3706 92.3408 56.5244 92.7479 56.5727C93.1551 56.6209 93.5677 56.5619 93.945 56.4015C94.3221 56.2412 94.6508 55.9851 94.8985 55.6587C96.7383 53.2499 99.1102 51.2991 101.829 49.9588C104.548 48.6182 107.54 47.9246 110.571 47.9321H110.572C113.718 47.9348 116.819 48.6876 119.616 50.128C122.414 51.5685 124.827 53.6551 126.657 56.2148C128.487 58.7745 129.68 61.7336 130.137 64.8466C130.594 67.9596 130.303 71.1368 129.287 74.1147C129.177 74.4338 129.138 74.7727 129.17 75.1086C129.203 75.445 129.308 75.7703 129.477 76.0627C129.647 76.3551 129.877 76.6075 130.153 76.8029C130.428 76.9983 130.743 77.1321 131.074 77.1952C135.591 78.0593 139.664 80.471 142.594 84.0151C145.523 87.5591 147.125 92.0136 147.124 96.6116C147.119 101.854 145.035 106.881 141.328 110.589C137.621 114.296 132.595 116.382 127.352 116.388C121.132 116.388 107.101 116.708 93.541 117.02C80.6818 117.315 67.4019 117.617 61.5511 117.628C61.3038 117.544 61.0447 117.5 60.7832 117.496H60.7764C54.4074 117.496 49.6782 117.385 45.331 117.282L45.0685 117.276C41.265 117.184 37.7315 117.1 33.6409 117.1C28.3992 117.095 23.3736 115.011 19.6667 111.305C15.9599 107.598 13.8746 102.573 13.8684 97.3316L13.8684 97.33C13.8536 93.9237 14.726 90.5722 16.3995 87.6053C18.0731 84.6384 20.4903 82.1584 23.4132 80.4092L23.4146 80.4083C23.8441 80.1494 24.1799 79.7604 24.3734 79.2977C24.5668 78.835 24.6079 78.3228 24.4906 77.8352L24.4905 77.8347C23.8398 75.1413 23.5084 72.3607 23.5084 69.5721C23.5084 50.1564 39.3044 34.3642 58.7203 34.3641Z" stroke="#26A522"/>
<path d="M61.3044 122.356H61.2977C61.0359 122.353 60.7765 122.308 60.5289 122.224C55.3373 122.216 50.146 122.141 44.9562 122C41.184 121.908 37.6896 121.824 33.6444 121.824H33.6439C27.15 121.818 20.9239 119.235 16.3316 114.644C11.7393 110.052 9.156 103.827 9.14844 97.3327L9.14844 97.3321C9.14844 89.2627 13.0026 81.8883 19.5377 77.3039C19.0396 74.7571 18.7872 72.1682 18.7844 69.5727V69.5721C18.7844 47.556 36.6963 29.6401 58.7204 29.6401H58.7209C65.9328 29.6472 73.0088 31.603 79.2006 35.3007C85.201 38.8841 90.155 43.9743 93.5739 50.061C95.7472 47.9531 98.2967 46.2685 101.092 45.0958C104.094 43.8365 107.318 43.1933 110.573 43.2041C110.574 43.2041 110.574 43.2041 110.574 43.2041L110.572 43.7041C114.218 43.7072 117.814 44.5399 121.09 46.1392C124.366 47.7384 127.235 50.0622 129.479 52.9346C131.724 55.8069 133.285 59.1525 134.045 62.7177C134.804 66.2829 134.743 69.9743 133.864 73.5121L61.3044 122.356ZM61.3044 122.356C67.0759 122.356 79.9916 122.064 93.656 121.744M61.3044 122.356L134.461 73.1657C139.409 74.6658 143.76 77.6947 146.886 81.8237C150.109 86.0804 151.853 91.2732 151.852 96.6121C151.852 110.12 140.865 121.112 127.356 121.112C121.196 121.112 107.2 121.432 93.656 121.744M93.656 121.744L93.6444 121.244L93.6561 121.744C93.6561 121.744 93.656 121.744 93.656 121.744ZM23.1564 79.9801C23.4949 79.7761 23.7596 79.4695 23.9121 79.1048C24.0645 78.7402 24.0969 78.3364 24.0044 77.9521C23.3444 75.2201 23.0084 72.4001 23.0084 69.5721C23.0084 49.8801 39.0284 33.8641 58.7204 33.8641L23.1564 79.9801ZM23.1564 79.9801C20.159 81.7739 17.6802 84.3172 15.964 87.3596M23.1564 79.9801L15.964 87.3596M15.964 87.3596C14.2478 90.4021 13.3533 93.839 13.3684 97.3321L15.964 87.3596ZM58.7203 34.3641C65.5148 34.3722 72.1627 36.341 77.8659 40.0342C83.5686 43.7271 88.0845 48.9872 90.8715 55.1832C91.0361 55.5577 91.2955 55.8828 91.6241 56.1264C91.9534 56.3706 92.3408 56.5244 92.7479 56.5727C93.1551 56.6209 93.5677 56.5619 93.945 56.4015C94.3221 56.2412 94.6508 55.9851 94.8985 55.6587C96.7383 53.2499 99.1102 51.2991 101.829 49.9588C104.548 48.6182 107.54 47.9246 110.571 47.9321H110.572C113.718 47.9348 116.819 48.6876 119.616 50.128C122.414 51.5685 124.827 53.6551 126.657 56.2148C128.487 58.7745 129.68 61.7336 130.137 64.8466C130.594 67.9596 130.303 71.1368 129.287 74.1147C129.177 74.4338 129.138 74.7727 129.17 75.1086C129.203 75.445 129.308 75.7703 129.477 76.0627C129.647 76.3551 129.877 76.6075 130.153 76.8029C130.428 76.9983 130.743 77.1321 131.074 77.1952C135.591 78.0593 139.664 80.471 142.594 84.0151C145.523 87.5591 147.125 92.0136 147.124 96.6116C147.119 101.854 145.035 106.881 141.328 110.589C137.621 114.296 132.595 116.382 127.352 116.388C121.132 116.388 107.101 116.708 93.541 117.02C80.6818 117.315 67.4019 117.617 61.5511 117.628C61.3038 117.544 61.0447 117.5 60.7832 117.496H60.7764C54.4074 117.496 49.6782 117.385 45.331 117.282L45.0685 117.276C41.265 117.184 37.7315 117.1 33.6409 117.1C28.3992 117.095 23.3736 115.011 19.6667 111.305C15.9599 107.598 13.8746 102.573 13.8684 97.3316L13.8684 97.33C13.8536 93.9237 14.726 90.5722 16.3995 87.6053C18.0731 84.6384 20.4903 82.1584 23.4132 80.4092L23.4146 80.4083C23.8441 80.1494 24.1799 79.7604 24.3734 79.2977C24.5668 78.835 24.6079 78.3228 24.4906 77.8352L24.4905 77.8347C23.8398 75.1413 23.5084 72.3607 23.5084 69.5721C23.5084 50.1564 39.3044 34.3642 58.7203 34.3641Z" stroke="black" stroke-opacity="0.4"/>
</g>
<g id="Vector_2">
<path d="M71.9323 86.0561C72.0218 86.0555 72.1103 86.075 72.1913 86.1131C72.2722 86.1511 72.3437 86.2068 72.4003 86.2761L73.6923 87.6681C72.7066 88.8027 71.4866 89.7103 70.1163 90.3281C68.7163 90.9628 67.023 91.2801 65.0363 91.2801C63.3163 91.2801 61.7537 90.9814 60.3483 90.3841C58.9833 89.8124 57.7559 88.956 56.7483 87.8721C55.7222 86.7492 54.9355 85.429 54.4363 83.9921C53.8729 82.3958 53.5953 80.7127 53.6163 79.0201C53.6163 77.2121 53.9017 75.5534 54.4723 74.0441C54.9809 72.6043 55.7889 71.2888 56.8431 70.1842C57.8974 69.0796 59.1739 68.2112 60.5883 67.6361C62.1047 67.0272 63.7264 66.7241 65.3603 66.7441C67.067 66.7441 68.575 67.0174 69.8843 67.5641C71.1884 68.1081 72.3377 68.8494 73.3323 69.7881L72.2603 71.2801C72.1971 71.3916 72.1079 71.4863 72.0003 71.5561C71.8706 71.6315 71.7223 71.6689 71.5723 71.6641C71.3697 71.6641 71.1243 71.5548 70.8363 71.3361C69.9698 70.6742 68.9878 70.1791 67.9403 69.8761C67.0962 69.638 66.2212 69.5274 65.3443 69.5481C64.107 69.5481 62.9723 69.7641 61.9403 70.1961C60.9291 70.615 60.0233 71.2529 59.2883 72.0641C58.547 72.8774 57.9697 73.8708 57.5563 75.0441C57.1296 76.3228 56.9213 77.6642 56.9403 79.0121C56.9403 80.5054 57.155 81.8388 57.5843 83.0121C58.011 84.1854 58.5977 85.1761 59.3443 85.9841C60.4643 87.1961 60.9603 87.4121 61.9723 87.8361C62.9857 88.2601 64.0777 88.4721 65.2483 88.4721C65.963 88.4721 66.607 88.4294 67.1803 88.3441C67.723 88.2683 68.2565 88.1369 68.7723 87.9521C69.2481 87.778 69.7029 87.5512 70.1283 87.2761C70.547 86.9988 70.9643 86.6721 71.3803 86.2961C71.5261 86.1473 71.7241 86.0612 71.9323 86.0561ZM99.1683 79.0241C99.1683 80.8188 98.883 82.4694 98.3123 83.9761C97.773 85.4151 96.9532 86.7326 95.9003 87.8521C94.8453 88.9474 93.5708 89.8075 92.1604 90.3761C90.6224 90.9827 88.9815 91.2856 87.3284 91.2681C85.563 91.2681 83.955 90.9708 82.5043 90.3761C81.0967 89.8065 79.8251 88.9464 78.7724 87.8521C77.7108 86.7394 76.8897 85.42 76.3603 83.9761C75.7787 82.3906 75.4887 80.7129 75.5043 79.0241C75.5043 77.2268 75.7897 75.5761 76.3603 74.0721C76.9337 72.5708 77.7377 71.2761 78.7724 70.1881C79.8239 69.0894 81.0957 68.2252 82.5043 67.6521C84.0361 67.0324 85.6762 66.725 87.3284 66.7481C89.0964 66.7481 90.707 67.0494 92.1604 67.6521C93.6137 68.2548 94.8604 69.1001 95.9003 70.1881C96.9403 71.2761 97.7443 72.5708 98.3123 74.0721C98.883 75.5761 99.1683 77.2268 99.1683 79.0241ZM95.8323 79.0241C95.8323 77.5468 95.631 76.2241 95.2283 75.0561C94.8693 73.9586 94.2879 72.9468 93.5203 72.0841C92.7773 71.2696 91.8617 70.6313 90.8403 70.2161C89.7213 69.769 88.5253 69.5461 87.3203 69.5601C86.0377 69.5601 84.871 69.7788 83.8203 70.2161C82.7976 70.6308 81.8805 71.2691 81.1364 72.0841C80.3923 72.8921 79.819 73.8828 79.4163 75.0561C79.0163 76.2268 78.815 77.5494 78.8123 79.0241C78.8123 80.4961 79.0137 81.8161 79.4163 82.9841C79.8163 84.1468 80.3897 85.1348 81.1364 85.9481C81.8777 86.7588 82.7723 87.3774 83.8203 87.8041C84.871 88.2361 86.0377 88.4521 87.3203 88.4521C88.6137 88.4521 89.787 88.2361 90.8403 87.8041C91.8883 87.3774 92.7817 86.7588 93.5203 85.9481C94.2563 85.1348 94.8257 84.1468 95.2283 82.9841C95.6337 81.8161 95.835 80.4961 95.8323 79.0241ZM110.376 100.52C110.563 100.52 110.714 100.576 110.828 100.688C110.883 100.745 110.926 100.812 110.955 100.885C110.984 100.959 110.998 101.037 110.996 101.116V102.172H101.66V101.576C101.666 101.296 101.781 101.029 101.98 100.832L106.46 96.3321C106.831 95.9534 107.17 95.5894 107.476 95.2401C107.78 94.8934 108.04 94.5428 108.256 94.1881C108.47 93.8361 108.635 93.4801 108.752 93.1201C108.868 92.7442 108.927 92.3533 108.928 91.9601C108.934 91.592 108.868 91.2264 108.732 90.8841C108.617 90.5934 108.438 90.3323 108.208 90.1204C107.978 89.9085 107.703 89.7512 107.404 89.6601C106.763 89.4551 106.072 89.4579 105.432 89.6681C104.861 89.8614 104.374 90.2475 104.056 90.7601C103.901 91.0203 103.789 91.304 103.724 91.6001C103.647 91.8268 103.542 91.9788 103.408 92.0561C103.275 92.1334 103.087 92.1548 102.844 92.1201L101.936 91.9601C102.027 91.3254 102.206 90.7614 102.472 90.2681C102.734 89.7801 103.066 89.3681 103.468 89.0321C103.868 88.7041 104.324 88.4521 104.836 88.2761C105.351 88.1054 105.908 88.0201 106.508 88.0201C107.1 88.0201 107.652 88.1068 108.164 88.2801C108.657 88.4332 109.11 88.6903 109.495 89.034C109.879 89.3776 110.185 89.7999 110.392 90.2721C110.613 90.7901 110.722 91.349 110.712 91.9121C110.712 92.4348 110.635 92.9174 110.48 93.3601C110.325 93.8092 110.112 94.2366 109.848 94.6321C109.582 95.0374 109.274 95.4321 108.924 95.8161C108.575 96.2001 108.206 96.5881 107.816 96.9801L104.124 100.744C104.386 100.675 104.65 100.619 104.916 100.576C105.183 100.533 105.44 100.512 105.688 100.512H110.376V100.52Z" fill="#26A522"/>
<path d="M71.9323 86.0561C72.0218 86.0555 72.1103 86.075 72.1913 86.1131C72.2722 86.1511 72.3437 86.2068 72.4003 86.2761L73.6923 87.6681C72.7066 88.8027 71.4866 89.7103 70.1163 90.3281C68.7163 90.9628 67.023 91.2801 65.0363 91.2801C63.3163 91.2801 61.7537 90.9814 60.3483 90.3841C58.9833 89.8124 57.7559 88.956 56.7483 87.8721C55.7222 86.7492 54.9355 85.429 54.4363 83.9921C53.8729 82.3958 53.5953 80.7127 53.6163 79.0201C53.6163 77.2121 53.9017 75.5534 54.4723 74.0441C54.9809 72.6043 55.7889 71.2888 56.8431 70.1842C57.8974 69.0796 59.1739 68.2112 60.5883 67.6361C62.1047 67.0272 63.7264 66.7241 65.3603 66.7441C67.067 66.7441 68.575 67.0174 69.8843 67.5641C71.1884 68.1081 72.3377 68.8494 73.3323 69.7881L72.2603 71.2801C72.1971 71.3916 72.1079 71.4863 72.0003 71.5561C71.8706 71.6315 71.7223 71.6689 71.5723 71.6641C71.3697 71.6641 71.1243 71.5548 70.8363 71.3361C69.9698 70.6742 68.9878 70.1791 67.9403 69.8761C67.0962 69.638 66.2212 69.5274 65.3443 69.5481C64.107 69.5481 62.9723 69.7641 61.9403 70.1961C60.9291 70.615 60.0233 71.2529 59.2883 72.0641C58.547 72.8774 57.9697 73.8708 57.5563 75.0441C57.1296 76.3228 56.9213 77.6642 56.9403 79.0121C56.9403 80.5054 57.155 81.8388 57.5843 83.0121C58.011 84.1854 58.5977 85.1761 59.3443 85.9841C60.4643 87.1961 60.9603 87.4121 61.9723 87.8361C62.9857 88.2601 64.0777 88.4721 65.2483 88.4721C65.963 88.4721 66.607 88.4294 67.1803 88.3441C67.723 88.2683 68.2565 88.1369 68.7723 87.9521C69.2481 87.778 69.7029 87.5512 70.1283 87.2761C70.547 86.9988 70.9643 86.6721 71.3803 86.2961C71.5261 86.1473 71.7241 86.0612 71.9323 86.0561ZM99.1683 79.0241C99.1683 80.8188 98.883 82.4694 98.3123 83.9761C97.773 85.4151 96.9532 86.7326 95.9003 87.8521C94.8453 88.9474 93.5708 89.8075 92.1604 90.3761C90.6224 90.9827 88.9815 91.2856 87.3284 91.2681C85.563 91.2681 83.955 90.9708 82.5043 90.3761C81.0967 89.8065 79.8251 88.9464 78.7724 87.8521C77.7108 86.7394 76.8897 85.42 76.3603 83.9761C75.7787 82.3906 75.4887 80.7129 75.5043 79.0241C75.5043 77.2268 75.7897 75.5761 76.3603 74.0721C76.9337 72.5708 77.7377 71.2761 78.7724 70.1881C79.8239 69.0894 81.0957 68.2252 82.5043 67.6521C84.0361 67.0324 85.6762 66.725 87.3284 66.7481C89.0964 66.7481 90.707 67.0494 92.1604 67.6521C93.6137 68.2548 94.8604 69.1001 95.9003 70.1881C96.9403 71.2761 97.7443 72.5708 98.3123 74.0721C98.883 75.5761 99.1683 77.2268 99.1683 79.0241ZM95.8323 79.0241C95.8323 77.5468 95.631 76.2241 95.2283 75.0561C94.8693 73.9586 94.2879 72.9468 93.5203 72.0841C92.7773 71.2696 91.8617 70.6313 90.8403 70.2161C89.7213 69.769 88.5253 69.5461 87.3203 69.5601C86.0377 69.5601 84.871 69.7788 83.8203 70.2161C82.7976 70.6308 81.8805 71.2691 81.1364 72.0841C80.3923 72.8921 79.819 73.8828 79.4163 75.0561C79.0163 76.2268 78.815 77.5494 78.8123 79.0241C78.8123 80.4961 79.0137 81.8161 79.4163 82.9841C79.8163 84.1468 80.3897 85.1348 81.1364 85.9481C81.8777 86.7588 82.7723 87.3774 83.8203 87.8041C84.871 88.2361 86.0377 88.4521 87.3203 88.4521C88.6137 88.4521 89.787 88.2361 90.8403 87.8041C91.8883 87.3774 92.7817 86.7588 93.5203 85.9481C94.2563 85.1348 94.8257 84.1468 95.2283 82.9841C95.6337 81.8161 95.835 80.4961 95.8323 79.0241ZM110.376 100.52C110.563 100.52 110.714 100.576 110.828 100.688C110.883 100.745 110.926 100.812 110.955 100.885C110.984 100.959 110.998 101.037 110.996 101.116V102.172H101.66V101.576C101.666 101.296 101.781 101.029 101.98 100.832L106.46 96.3321C106.831 95.9534 107.17 95.5894 107.476 95.2401C107.78 94.8934 108.04 94.5428 108.256 94.1881C108.47 93.8361 108.635 93.4801 108.752 93.1201C108.868 92.7442 108.927 92.3533 108.928 91.9601C108.934 91.592 108.868 91.2264 108.732 90.8841C108.617 90.5934 108.438 90.3323 108.208 90.1204C107.978 89.9085 107.703 89.7512 107.404 89.6601C106.763 89.4551 106.072 89.4579 105.432 89.6681C104.861 89.8614 104.374 90.2475 104.056 90.7601C103.901 91.0203 103.789 91.304 103.724 91.6001C103.647 91.8268 103.542 91.9788 103.408 92.0561C103.275 92.1334 103.087 92.1548 102.844 92.1201L101.936 91.9601C102.027 91.3254 102.206 90.7614 102.472 90.2681C102.734 89.7801 103.066 89.3681 103.468 89.0321C103.868 88.7041 104.324 88.4521 104.836 88.2761C105.351 88.1054 105.908 88.0201 106.508 88.0201C107.1 88.0201 107.652 88.1068 108.164 88.2801C108.657 88.4332 109.11 88.6903 109.495 89.034C109.879 89.3776 110.185 89.7999 110.392 90.2721C110.613 90.7901 110.722 91.349 110.712 91.9121C110.712 92.4348 110.635 92.9174 110.48 93.3601C110.325 93.8092 110.112 94.2366 109.848 94.6321C109.582 95.0374 109.274 95.4321 108.924 95.8161C108.575 96.2001 108.206 96.5881 107.816 96.9801L104.124 100.744C104.386 100.675 104.65 100.619 104.916 100.576C105.183 100.533 105.44 100.512 105.688 100.512H110.376V100.52Z" fill="black" fill-opacity="0.4"/>
</g>
</g>
</svg>
