<svg width="160" height="160" viewBox="0 0 160 160" fill="none" xmlns="http://www.w3.org/2000/svg">
<g id="clarity:success-standard-line" clip-path="url(#clip0_3045_44)">
<g id="Vector">
<path d="M79.9998 8.88867C65.9354 8.88867 52.1868 13.0593 40.4926 20.8731C28.7984 28.6868 19.6839 39.7929 14.3017 52.7867C8.91948 65.7806 7.51125 80.0787 10.2551 93.8729C12.9989 107.667 19.7716 120.338 29.7167 130.283C39.6617 140.228 52.3325 147.001 66.1267 149.745C79.9209 152.488 94.219 151.08 107.213 145.698C120.207 140.316 131.313 131.201 139.127 119.507C146.94 107.813 151.111 94.0642 151.111 79.9998C151.111 61.1399 143.619 43.0526 130.283 29.7166C116.947 16.3807 98.8597 8.88867 79.9998 8.88867ZM79.9998 142.222C67.6934 142.222 55.6634 138.573 45.431 131.736C35.1986 124.899 27.2234 115.181 22.514 103.811C17.8045 92.4416 16.5723 79.9308 18.9732 67.8608C21.374 55.7909 27.3001 44.704 36.0021 36.002C44.704 27.3001 55.7909 21.374 67.8609 18.9731C79.9308 16.5723 92.4416 17.8045 103.811 22.5139C115.181 27.2234 124.899 35.1986 131.736 45.431C138.573 55.6634 142.222 67.6934 142.222 79.9998C142.222 96.5021 135.667 112.329 123.998 123.998C112.329 135.666 96.5022 142.222 79.9998 142.222Z" fill="#26A522"/>
<path d="M79.9998 8.88867C65.9354 8.88867 52.1868 13.0593 40.4926 20.8731C28.7984 28.6868 19.6839 39.7929 14.3017 52.7867C8.91948 65.7806 7.51125 80.0787 10.2551 93.8729C12.9989 107.667 19.7716 120.338 29.7167 130.283C39.6617 140.228 52.3325 147.001 66.1267 149.745C79.9209 152.488 94.219 151.08 107.213 145.698C120.207 140.316 131.313 131.201 139.127 119.507C146.94 107.813 151.111 94.0642 151.111 79.9998C151.111 61.1399 143.619 43.0526 130.283 29.7166C116.947 16.3807 98.8597 8.88867 79.9998 8.88867ZM79.9998 142.222C67.6934 142.222 55.6634 138.573 45.431 131.736C35.1986 124.899 27.2234 115.181 22.514 103.811C17.8045 92.4416 16.5723 79.9308 18.9732 67.8608C21.374 55.7909 27.3001 44.704 36.0021 36.002C44.704 27.3001 55.7909 21.374 67.8609 18.9731C79.9308 16.5723 92.4416 17.8045 103.811 22.5139C115.181 27.2234 124.899 35.1986 131.736 45.431C138.573 55.6634 142.222 67.6934 142.222 79.9998C142.222 96.5021 135.667 112.329 123.998 123.998C112.329 135.666 96.5022 142.222 79.9998 142.222Z" fill="black" fill-opacity="0.4"/>
</g>
<g id="Vector_2">
<path d="M124.444 53.7778C123.612 52.95 122.485 52.4854 121.311 52.4854C120.137 52.4854 119.01 52.95 118.178 53.7778L68.8444 102.889L42.1777 76.2222C41.3644 75.344 40.2355 74.8249 39.0394 74.7791C37.8434 74.7333 36.6781 75.1644 35.7999 75.9778C34.9218 76.7911 34.4027 77.92 34.3568 79.116C34.311 80.3121 34.7422 81.4774 35.5555 82.3555L68.8444 115.556L124.444 60.0889C124.861 59.6757 125.192 59.1841 125.417 58.6425C125.643 58.101 125.759 57.52 125.759 56.9333C125.759 56.3466 125.643 55.7657 125.417 55.2241C125.192 54.6825 124.861 54.1909 124.444 53.7778Z" fill="#26A522"/>
<path d="M124.444 53.7778C123.612 52.95 122.485 52.4854 121.311 52.4854C120.137 52.4854 119.01 52.95 118.178 53.7778L68.8444 102.889L42.1777 76.2222C41.3644 75.344 40.2355 74.8249 39.0394 74.7791C37.8434 74.7333 36.6781 75.1644 35.7999 75.9778C34.9218 76.7911 34.4027 77.92 34.3568 79.116C34.311 80.3121 34.7422 81.4774 35.5555 82.3555L68.8444 115.556L124.444 60.0889C124.861 59.6757 125.192 59.1841 125.417 58.6425C125.643 58.101 125.759 57.52 125.759 56.9333C125.759 56.3466 125.643 55.7657 125.417 55.2241C125.192 54.6825 124.861 54.1909 124.444 53.7778Z" fill="black" fill-opacity="0.4"/>
</g>
</g>
<defs>
<clipPath id="clip0_3045_44">
<rect width="160" height="160" fill="white"/>
</clipPath>
</defs>
</svg>
